<svg width="513" height="82" viewBox="0 0 513 82" fill="none" xmlns="http://www.w3.org/2000/svg">
<path fill-rule="evenodd" clip-rule="evenodd" d="M239.982 18.0034C242.021 17.9842 242.444 18.0418 242.694 18.3109C242.905 18.5416 243.001 19.2528 243.175 22.8473L244.905 23.3087C245.847 23.5393 246.809 23.8084 247.02 23.8853C247.347 23.9814 247.559 23.7508 248.347 22.386C248.866 21.521 249.424 20.6368 249.597 20.4446C249.77 20.2524 250.02 20.0986 250.136 20.1178C250.27 20.1178 251.27 20.6176 252.347 21.2135C253.424 21.8286 254.424 22.4437 254.558 22.559C254.693 22.6936 254.808 23.0011 254.808 23.2318C254.808 23.4817 254.366 24.4236 252.885 27.0378L254.27 28.5179C255.039 29.3444 255.751 30.0364 255.866 30.0748C255.981 30.0941 256.847 29.6904 257.789 29.1522C258.731 28.6332 259.654 28.1911 259.808 28.1911C259.962 28.1911 260.231 28.3256 260.404 28.5179C260.596 28.7101 261.212 29.7481 261.808 30.8245C262.789 32.6122 262.866 32.8428 262.635 33.2273C262.5 33.4772 261.654 34.0923 260.75 34.6113C259.866 35.1302 259.116 35.5531 259.077 35.5724C259.039 35.5724 259.27 36.5719 260.096 39.9165H262.25C263.923 39.9165 264.481 39.9742 264.712 40.2049C264.942 40.4355 265 41.0122 265 42.9344C265 44.9912 264.942 45.4525 264.654 45.7408C264.385 46.0292 264 46.0868 260.096 46.0484L259.577 47.9322C259.289 48.9701 259.039 49.9313 259.039 50.0466C259.039 50.1811 259.866 50.777 260.866 51.3537C262.116 52.0649 262.731 52.5455 262.808 52.8338C262.885 53.1413 262.596 53.8333 261.827 55.1981C261.231 56.2553 260.558 57.2741 260.327 57.4663C260.058 57.6777 259.77 57.7546 259.52 57.6777C259.308 57.6009 258.404 57.1203 255.866 55.6787L254.366 57.178C253.558 57.9853 252.885 58.735 252.885 58.8503C252.885 58.9656 253.328 59.773 253.847 60.6764C254.366 61.5798 254.808 62.4833 254.808 62.6947C254.808 62.9062 254.674 63.2137 254.481 63.3867C254.289 63.5597 253.328 64.1364 252.347 64.6746C251.193 65.3281 250.386 65.6549 250.059 65.6165C249.597 65.578 249.347 65.2897 248.424 63.7519C247.828 62.7524 247.213 61.945 247.078 61.9643C246.944 61.9835 246.001 62.2142 243.175 62.9446L243.078 65.1359C243.001 66.7121 242.905 67.4426 242.694 67.6732C242.444 67.9423 242.021 68 240.002 68C237.944 68 237.56 67.9423 237.271 67.654C237.002 67.3849 236.925 66.8659 236.829 62.9446L235.002 62.464C234.002 62.2142 233.079 61.9835 232.944 61.9643C232.81 61.945 232.252 62.6947 231.695 63.6558C231.022 64.7707 230.502 65.4435 230.195 65.5588C229.791 65.7126 229.425 65.578 227.887 64.7322C226.887 64.1748 225.906 63.5597 225.714 63.3867C225.522 63.2137 225.387 62.8677 225.387 62.5986C225.387 62.3295 225.83 61.3876 227.31 58.8503L224.195 55.7748L222.522 56.6782C221.618 57.1972 220.657 57.6009 220.388 57.6009C220.118 57.6009 219.811 57.524 219.676 57.4471C219.561 57.3702 218.984 56.4668 218.388 55.4288C217.792 54.41 217.311 53.372 217.311 53.1221C217.292 52.8915 217.445 52.5647 217.638 52.3917C217.83 52.2187 218.638 51.7189 219.426 51.2576C220.215 50.7962 220.888 50.431 220.926 50.4118C220.964 50.3926 220.753 49.4891 220.484 48.3743C220.215 47.2594 219.945 46.2983 219.888 46.2022C219.849 46.1253 218.926 46.0676 217.83 46.0676C216.407 46.0676 215.753 45.9907 215.426 45.7793C215.023 45.5102 215.003 45.3564 215.003 43.0305C214.984 40.9353 215.042 40.5509 215.33 40.2625C215.599 40.0127 216.119 39.9165 219.868 39.8204L220.311 38.0904C220.561 37.1293 220.811 36.1875 220.888 35.976C220.984 35.6492 220.734 35.4378 219.407 34.6305C218.522 34.0923 217.695 33.554 217.561 33.4195C217.426 33.3042 217.311 32.9966 217.311 32.7467C217.311 32.516 217.869 31.4204 218.522 30.3055C219.484 28.6909 219.83 28.268 220.195 28.2295C220.484 28.2103 221.349 28.5563 224.137 30.1133L225.637 28.6332C226.445 27.8066 227.118 27.0762 227.118 26.9801C227.118 26.9032 226.676 26.0959 226.156 25.154C225.349 23.7508 225.214 23.4048 225.368 23.0011C225.483 22.6743 226.137 22.1746 227.483 21.4057C228.772 20.6752 229.599 20.3292 229.945 20.3485C230.348 20.3869 230.637 20.6368 231.06 21.3096C231.368 21.7901 231.848 22.5782 232.598 23.9046L236.829 22.8473L236.848 20.7714C236.886 19.0606 236.944 18.6377 237.213 18.3494C237.502 18.061 237.925 18.0034 239.982 18.0034ZM242.732 30.7092C242.194 30.5938 240.848 30.4977 239.771 30.5169H239.752C238.502 30.5169 237.367 30.6515 236.637 30.8629C236.002 31.0359 235.002 31.4396 234.425 31.7279C233.848 32.0163 232.944 32.5737 232.425 32.9582C231.906 33.3618 231.06 34.1499 230.541 34.7266C230.022 35.3032 229.31 36.3412 228.945 37.0332C228.579 37.7252 228.118 38.9747 227.887 39.8204C227.656 40.7431 227.503 41.9733 227.503 42.896C227.503 43.8186 227.656 45.0488 227.887 45.9715C228.118 46.8173 228.618 48.1051 229.002 48.8548C229.445 49.7006 230.252 50.7386 231.156 51.6612C232.271 52.7761 232.964 53.2951 234.233 53.9102C235.137 54.3523 236.387 54.8521 237.021 55.0059C237.656 55.1596 239.002 55.2942 240.002 55.2942C241.021 55.2942 242.328 55.1596 242.982 55.0059C243.617 54.8329 244.655 54.4677 245.29 54.1601C245.924 53.8718 247.001 53.199 247.674 52.68C248.347 52.161 249.27 51.2576 249.713 50.6809C250.155 50.1042 250.789 49.1047 251.116 48.4704C251.424 47.836 251.847 46.798 252.039 46.1637C252.289 45.3179 252.385 44.4145 252.385 42.7999C252.385 40.8969 252.309 40.3779 251.847 39.0516C251.559 38.2058 251.059 37.0909 250.732 36.5527C250.405 36.0337 249.789 35.1687 249.347 34.6497C248.924 34.1307 248.04 33.3426 247.405 32.8813C246.77 32.4392 245.694 31.8048 245.001 31.4973C244.309 31.1897 243.29 30.8245 242.732 30.7092Z" fill="#098434"/>
<path d="M46.848 30.904H31.104L24.768 67H13.184L19.52 30.904H3.712L5.504 20.92H48.64L46.848 30.904ZM77.9065 67H45.7785L53.9065 20.92H86.0345L84.2425 30.904H63.6345L62.1625 39.544H79.1865L77.3945 49.528H60.3705L59.0905 57.016H79.6985L77.9065 67ZM101.471 67.896C95.3692 67.896 91.1452 66.5733 88.7985 63.928C87.1772 62.0507 86.3665 59.4267 86.3665 56.056C86.3665 54.6053 86.5158 53.048 86.8145 51.384L89.4385 36.664C91.3585 25.8693 98.2918 20.472 110.239 20.472C115.188 20.472 118.943 21.5387 121.503 23.672C124.063 25.7627 125.343 28.6427 125.343 32.312C125.343 34.0187 125.087 35.7253 124.575 37.432C124.105 39.096 123.636 40.3333 123.167 41.144L122.463 42.424H111.135C112.543 40.8027 113.247 38.4987 113.247 35.512C113.247 33.9333 112.841 32.696 112.031 31.8C111.22 30.8613 110.025 30.392 108.447 30.392C104.137 30.392 101.577 32.7813 100.767 37.56L98.5265 50.488C98.3132 51.5973 98.2065 52.6853 98.2065 53.752C98.2065 56.568 99.8918 57.976 103.263 57.976C107.316 57.976 109.748 55.6933 110.559 51.128H122.079L121.759 52.984C120.052 62.9253 113.289 67.896 101.471 67.896ZM170.364 20.92L162.3 67H150.716L153.66 50.36H141.18L138.3 67H126.716L134.844 20.92H146.364L142.908 40.376H155.388L158.844 20.92H170.364ZM214.989 20.92L206.925 67H195.341L187.277 41.784L182.925 67H171.341L179.469 20.92H191.373L199.309 44.472L203.469 20.92H214.989Z" fill="#098434"/>
<path d="M279.182 67.2051C278.089 67.0684 275.981 67 272.859 67H270.125V21.4043C271.583 21.4954 273.19 21.541 274.944 21.541C276.699 21.541 277.941 21.4499 278.67 21.2676L290.154 40.7842L301.194 21.2676C301.923 21.4499 303.313 21.541 305.364 21.541C307.415 21.541 309.169 21.4954 310.628 21.4043V67H307.893C304.772 67 302.664 67.0684 301.57 67.2051V36.5801L290.393 56.5752L279.182 38.1865V67.2051ZM325.906 67.2734C323.946 67.0911 321.656 67 319.036 67H316.336L331.204 25.335C331.865 23.4665 332.195 22.3841 332.195 22.0879C332.195 21.7689 332.184 21.5752 332.161 21.5068L332.195 21.4385C333.676 21.5068 335.249 21.541 336.912 21.541C338.279 21.541 339.92 21.5182 341.834 21.4727L341.868 21.541C341.822 21.6322 341.8 21.7575 341.8 21.917C341.8 22.3499 342.141 23.5007 342.825 25.3691L358.001 67.1025C357.545 67.0798 357.01 67.0684 356.394 67.0684C356.394 67.0684 355.802 67.0456 354.617 67C354.047 67 353.535 67 353.079 67H347.781L344.568 57.1562H329.119L325.906 67.2734ZM341.902 48.9531L336.741 33.0596L331.717 48.9531H341.902ZM378.235 49.3291C377.552 49.3747 376.822 49.3975 376.048 49.3975C375.273 49.3975 374.122 49.3405 372.596 49.2266V67H363.538V21.3018C366.728 20.8916 370.647 20.6865 375.296 20.6865C381.63 20.6865 386.347 21.86 389.446 24.207C392.568 26.5312 394.129 30.1315 394.129 35.0078C394.129 38.7904 392.705 42.026 389.856 44.7148C388.922 45.5807 387.851 46.3327 386.643 46.9707L393.616 61.668C394.983 64.6986 396.031 66.4987 396.761 67.0684L396.59 67.2393C394.379 66.8747 390.904 66.8861 386.165 67.2734L378.235 49.3291ZM375.945 28.7529C374.783 28.7529 373.666 28.8099 372.596 28.9238V41.9805C373.712 42.14 375.022 42.2197 376.526 42.2197C378.03 42.2197 379.295 42.0944 380.32 41.8438C381.346 41.5703 382.234 41.1602 382.986 40.6133C384.604 39.4056 385.413 37.5941 385.413 35.1787C385.413 32.7633 384.57 31.0658 382.884 30.0859C381.311 29.1973 378.999 28.7529 375.945 28.7529ZM413.064 67.2051C411.492 67.0684 409.487 67 407.049 67H404.348V21.4043L405.716 21.4727C406.673 21.5182 407.39 21.541 407.869 21.541H408.86C410.865 21.541 412.267 21.4499 413.064 21.2676V40.5791L426.907 21.4043C428.365 21.4954 429.596 21.541 430.598 21.541H432.478C434.825 21.541 436.5 21.4499 437.503 21.2676L424.309 38.4941L437.298 64.2656C437.845 65.5189 438.357 66.4303 438.836 67H436.751C431.943 67 428.946 67.0911 427.762 67.2734C427.511 65.7467 427.169 64.4137 426.736 63.2744L418.02 46.6631L413.064 53.1572V67.2051ZM468.025 58.7969C469.438 58.7969 470.418 58.6602 470.965 58.3867L471.101 58.4209L470.76 67H445.159V21.3018C445.774 21.3473 446.458 21.3815 447.21 21.4043L449.602 21.4727C451.197 21.5182 452.929 21.541 454.798 21.541C460.016 21.541 465.177 21.4499 470.281 21.2676C470.03 23.2728 469.905 25.9502 469.905 29.2998C469.905 29.6644 469.928 29.9378 469.973 30.1201L469.905 30.2227C468.72 29.8809 467.034 29.71 464.846 29.71H454.08V38.4258H462.18C464.687 38.4258 466.191 38.3574 466.692 38.2207L466.795 46.6631C465.701 46.5492 464.288 46.4922 462.556 46.4922H454.08V58.7969H468.025ZM496.634 67.2051C495.54 67.0684 492.726 67 488.191 67H487.097V29.1973H480.33C478.325 29.1973 477.14 29.2998 476.775 29.5049C476.411 29.71 476.126 29.8923 475.921 30.0518L475.818 30.0176V21.2676L475.921 21.165C476.673 21.4157 478.701 21.541 482.005 21.541H503.435C505.441 21.541 506.625 21.4385 506.99 21.2334C507.355 21.0283 507.639 20.846 507.845 20.6865L507.947 20.7207V29.4707L507.845 29.5732C507.093 29.3226 505.065 29.1973 501.761 29.1973H496.634V67.2051Z" fill="black"/>
</svg>
